<mxfile host="app.diagrams.net" modified="2024-06-04T05:59:54.345Z" agent="Mozilla/5.0 (Macintosh; Intel Mac OS X 10_15_7) AppleWebKit/537.36 (KHTML, like Gecko) Chrome/124.0.0.0 Safari/537.36" etag="-bc8l9PL0t2i1AhGTWxP" version="24.4.13" type="device">
  <diagram id="C5RBs43oDa-KdzZeNtuy" name="Page-1">
    <mxGraphModel dx="1306" dy="909" grid="1" gridSize="10" guides="1" tooltips="1" connect="1" arrows="1" fold="1" page="1" pageScale="1" pageWidth="827" pageHeight="1169" math="0" shadow="0">
      <root>
        <mxCell id="WIyWlLk6GJQsqaUBKTNV-0" />
        <mxCell id="WIyWlLk6GJQsqaUBKTNV-1" parent="WIyWlLk6GJQsqaUBKTNV-0" />
        <mxCell id="6gy2ai8xuSV1-r_3bE68-26" style="edgeStyle=orthogonalEdgeStyle;rounded=0;orthogonalLoop=1;jettySize=auto;html=1;exitX=0.5;exitY=0;exitDx=0;exitDy=0;entryX=0.5;entryY=0;entryDx=0;entryDy=0;" edge="1" parent="WIyWlLk6GJQsqaUBKTNV-1" source="WIyWlLk6GJQsqaUBKTNV-6" target="6gy2ai8xuSV1-r_3bE68-11">
          <mxGeometry relative="1" as="geometry">
            <Array as="points">
              <mxPoint x="635" y="90" />
              <mxPoint x="260" y="90" />
            </Array>
          </mxGeometry>
        </mxCell>
        <mxCell id="6gy2ai8xuSV1-r_3bE68-28" style="edgeStyle=orthogonalEdgeStyle;rounded=0;orthogonalLoop=1;jettySize=auto;html=1;exitX=0.5;exitY=1;exitDx=0;exitDy=0;entryX=1;entryY=0.5;entryDx=0;entryDy=0;" edge="1" parent="WIyWlLk6GJQsqaUBKTNV-1" source="WIyWlLk6GJQsqaUBKTNV-6" target="6gy2ai8xuSV1-r_3bE68-27">
          <mxGeometry relative="1" as="geometry" />
        </mxCell>
        <mxCell id="WIyWlLk6GJQsqaUBKTNV-6" value="&lt;font style=&quot;font-size: 14px;&quot;&gt;遍历完所有查询组合？&lt;/font&gt;" style="rhombus;whiteSpace=wrap;html=1;shadow=0;fontFamily=Helvetica;fontSize=12;align=center;strokeWidth=1;spacing=6;spacingTop=-4;" parent="WIyWlLk6GJQsqaUBKTNV-1" vertex="1">
          <mxGeometry x="540" y="180" width="190" height="80" as="geometry" />
        </mxCell>
        <mxCell id="6gy2ai8xuSV1-r_3bE68-2" value="&lt;font style=&quot;font-size: 16px;&quot;&gt;拆分查询&lt;/font&gt;" style="rounded=1;whiteSpace=wrap;html=1;fontSize=12;glass=0;strokeWidth=1;shadow=0;textDirection=vertical-lr;" vertex="1" parent="WIyWlLk6GJQsqaUBKTNV-1">
          <mxGeometry x="60" y="160" width="40" height="120" as="geometry" />
        </mxCell>
        <mxCell id="6gy2ai8xuSV1-r_3bE68-3" value="&lt;font style=&quot;font-size: 16px;&quot;&gt;开始&lt;/font&gt;" style="rounded=1;whiteSpace=wrap;html=1;fontSize=12;glass=0;strokeWidth=1;shadow=0;textDirection=vertical-lr;" vertex="1" parent="WIyWlLk6GJQsqaUBKTNV-1">
          <mxGeometry y="160" width="40" height="120" as="geometry" />
        </mxCell>
        <mxCell id="6gy2ai8xuSV1-r_3bE68-4" value="" style="endArrow=classic;html=1;rounded=0;entryX=0;entryY=0.5;entryDx=0;entryDy=0;" edge="1" parent="WIyWlLk6GJQsqaUBKTNV-1" source="6gy2ai8xuSV1-r_3bE68-3" target="6gy2ai8xuSV1-r_3bE68-2">
          <mxGeometry width="50" height="50" relative="1" as="geometry">
            <mxPoint x="550" y="470" as="sourcePoint" />
            <mxPoint x="600" y="420" as="targetPoint" />
          </mxGeometry>
        </mxCell>
        <mxCell id="6gy2ai8xuSV1-r_3bE68-5" value="&lt;font style=&quot;font-size: 16px;&quot;&gt;初始化动态规则表&lt;/font&gt;" style="rounded=1;whiteSpace=wrap;html=1;fontSize=12;glass=0;strokeWidth=1;shadow=0;textDirection=vertical-lr;" vertex="1" parent="WIyWlLk6GJQsqaUBKTNV-1">
          <mxGeometry x="120" y="145" width="40" height="150" as="geometry" />
        </mxCell>
        <mxCell id="6gy2ai8xuSV1-r_3bE68-8" value="" style="endArrow=classic;html=1;rounded=0;exitX=1;exitY=0.5;exitDx=0;exitDy=0;entryX=0;entryY=0.5;entryDx=0;entryDy=0;" edge="1" parent="WIyWlLk6GJQsqaUBKTNV-1" source="6gy2ai8xuSV1-r_3bE68-2" target="6gy2ai8xuSV1-r_3bE68-5">
          <mxGeometry width="50" height="50" relative="1" as="geometry">
            <mxPoint x="550" y="470" as="sourcePoint" />
            <mxPoint x="600" y="420" as="targetPoint" />
          </mxGeometry>
        </mxCell>
        <mxCell id="6gy2ai8xuSV1-r_3bE68-9" value="&lt;font style=&quot;font-size: 16px;&quot;&gt;定义成本估算函数&lt;/font&gt;" style="rounded=1;whiteSpace=wrap;html=1;fontSize=12;glass=0;strokeWidth=1;shadow=0;textDirection=vertical-lr;" vertex="1" parent="WIyWlLk6GJQsqaUBKTNV-1">
          <mxGeometry x="180" y="145" width="40" height="150" as="geometry" />
        </mxCell>
        <mxCell id="6gy2ai8xuSV1-r_3bE68-10" value="" style="endArrow=classic;html=1;rounded=0;exitX=1;exitY=0.5;exitDx=0;exitDy=0;entryX=0;entryY=0.5;entryDx=0;entryDy=0;" edge="1" parent="WIyWlLk6GJQsqaUBKTNV-1" source="6gy2ai8xuSV1-r_3bE68-5" target="6gy2ai8xuSV1-r_3bE68-9">
          <mxGeometry width="50" height="50" relative="1" as="geometry">
            <mxPoint x="550" y="470" as="sourcePoint" />
            <mxPoint x="600" y="420" as="targetPoint" />
          </mxGeometry>
        </mxCell>
        <mxCell id="6gy2ai8xuSV1-r_3bE68-11" value="&lt;font style=&quot;font-size: 16px;&quot;&gt;迭代子查询组合&lt;/font&gt;" style="rounded=1;whiteSpace=wrap;html=1;fontSize=12;glass=0;strokeWidth=1;shadow=0;textDirection=vertical-lr;" vertex="1" parent="WIyWlLk6GJQsqaUBKTNV-1">
          <mxGeometry x="240" y="160" width="40" height="120" as="geometry" />
        </mxCell>
        <mxCell id="6gy2ai8xuSV1-r_3bE68-12" value="" style="endArrow=classic;html=1;rounded=0;exitX=1;exitY=0.5;exitDx=0;exitDy=0;entryX=0;entryY=0.5;entryDx=0;entryDy=0;" edge="1" parent="WIyWlLk6GJQsqaUBKTNV-1" source="6gy2ai8xuSV1-r_3bE68-9" target="6gy2ai8xuSV1-r_3bE68-11">
          <mxGeometry width="50" height="50" relative="1" as="geometry">
            <mxPoint x="550" y="470" as="sourcePoint" />
            <mxPoint x="600" y="420" as="targetPoint" />
          </mxGeometry>
        </mxCell>
        <mxCell id="6gy2ai8xuSV1-r_3bE68-13" value="&lt;font style=&quot;font-size: 16px;&quot;&gt;评估子组合&lt;/font&gt;" style="rounded=1;whiteSpace=wrap;html=1;fontSize=12;glass=0;strokeWidth=1;shadow=0;textDirection=vertical-lr;" vertex="1" parent="WIyWlLk6GJQsqaUBKTNV-1">
          <mxGeometry x="300" y="160" width="40" height="120" as="geometry" />
        </mxCell>
        <mxCell id="6gy2ai8xuSV1-r_3bE68-14" value="" style="endArrow=classic;html=1;rounded=0;exitX=1;exitY=0.5;exitDx=0;exitDy=0;entryX=0;entryY=0.5;entryDx=0;entryDy=0;" edge="1" parent="WIyWlLk6GJQsqaUBKTNV-1" source="6gy2ai8xuSV1-r_3bE68-11" target="6gy2ai8xuSV1-r_3bE68-13">
          <mxGeometry width="50" height="50" relative="1" as="geometry">
            <mxPoint x="550" y="470" as="sourcePoint" />
            <mxPoint x="600" y="420" as="targetPoint" />
          </mxGeometry>
        </mxCell>
        <mxCell id="6gy2ai8xuSV1-r_3bE68-15" value="&lt;font style=&quot;font-size: 16px;&quot;&gt;生成候选组合&lt;/font&gt;" style="rounded=1;whiteSpace=wrap;html=1;fontSize=12;glass=0;strokeWidth=1;shadow=0;textDirection=vertical-lr;" vertex="1" parent="WIyWlLk6GJQsqaUBKTNV-1">
          <mxGeometry x="360" y="160" width="40" height="120" as="geometry" />
        </mxCell>
        <mxCell id="6gy2ai8xuSV1-r_3bE68-16" value="" style="endArrow=classic;html=1;rounded=0;exitX=1;exitY=0.5;exitDx=0;exitDy=0;entryX=0;entryY=0.5;entryDx=0;entryDy=0;" edge="1" parent="WIyWlLk6GJQsqaUBKTNV-1" source="6gy2ai8xuSV1-r_3bE68-13" target="6gy2ai8xuSV1-r_3bE68-15">
          <mxGeometry width="50" height="50" relative="1" as="geometry">
            <mxPoint x="550" y="470" as="sourcePoint" />
            <mxPoint x="600" y="420" as="targetPoint" />
          </mxGeometry>
        </mxCell>
        <mxCell id="6gy2ai8xuSV1-r_3bE68-17" value="&lt;font style=&quot;font-size: 16px;&quot;&gt;计算候选组合成本&lt;/font&gt;" style="rounded=1;whiteSpace=wrap;html=1;fontSize=12;glass=0;strokeWidth=1;shadow=0;textDirection=vertical-lr;" vertex="1" parent="WIyWlLk6GJQsqaUBKTNV-1">
          <mxGeometry x="420" y="140" width="40" height="160" as="geometry" />
        </mxCell>
        <mxCell id="6gy2ai8xuSV1-r_3bE68-18" value="" style="endArrow=classic;html=1;rounded=0;exitX=1;exitY=0.5;exitDx=0;exitDy=0;entryX=0;entryY=0.5;entryDx=0;entryDy=0;" edge="1" parent="WIyWlLk6GJQsqaUBKTNV-1" source="6gy2ai8xuSV1-r_3bE68-15" target="6gy2ai8xuSV1-r_3bE68-17">
          <mxGeometry width="50" height="50" relative="1" as="geometry">
            <mxPoint x="550" y="470" as="sourcePoint" />
            <mxPoint x="600" y="420" as="targetPoint" />
          </mxGeometry>
        </mxCell>
        <mxCell id="6gy2ai8xuSV1-r_3bE68-25" style="edgeStyle=orthogonalEdgeStyle;rounded=0;orthogonalLoop=1;jettySize=auto;html=1;exitX=1;exitY=0.5;exitDx=0;exitDy=0;entryX=0;entryY=0.5;entryDx=0;entryDy=0;" edge="1" parent="WIyWlLk6GJQsqaUBKTNV-1" source="6gy2ai8xuSV1-r_3bE68-19" target="WIyWlLk6GJQsqaUBKTNV-6">
          <mxGeometry relative="1" as="geometry" />
        </mxCell>
        <mxCell id="6gy2ai8xuSV1-r_3bE68-19" value="&lt;font style=&quot;font-size: 16px;&quot;&gt;比较并更新最优成本&lt;/font&gt;" style="rounded=1;whiteSpace=wrap;html=1;fontSize=12;glass=0;strokeWidth=1;shadow=0;textDirection=vertical-lr;" vertex="1" parent="WIyWlLk6GJQsqaUBKTNV-1">
          <mxGeometry x="480" y="140" width="40" height="160" as="geometry" />
        </mxCell>
        <mxCell id="6gy2ai8xuSV1-r_3bE68-20" value="" style="endArrow=classic;html=1;rounded=0;exitX=1;exitY=0.5;exitDx=0;exitDy=0;entryX=0;entryY=0.5;entryDx=0;entryDy=0;" edge="1" parent="WIyWlLk6GJQsqaUBKTNV-1" source="6gy2ai8xuSV1-r_3bE68-17" target="6gy2ai8xuSV1-r_3bE68-19">
          <mxGeometry width="50" height="50" relative="1" as="geometry">
            <mxPoint x="550" y="470" as="sourcePoint" />
            <mxPoint x="600" y="420" as="targetPoint" />
          </mxGeometry>
        </mxCell>
        <mxCell id="6gy2ai8xuSV1-r_3bE68-31" style="edgeStyle=orthogonalEdgeStyle;rounded=0;orthogonalLoop=1;jettySize=auto;html=1;" edge="1" parent="WIyWlLk6GJQsqaUBKTNV-1" source="6gy2ai8xuSV1-r_3bE68-27" target="6gy2ai8xuSV1-r_3bE68-30">
          <mxGeometry relative="1" as="geometry" />
        </mxCell>
        <mxCell id="6gy2ai8xuSV1-r_3bE68-27" value="&lt;span style=&quot;font-size: 16px;&quot;&gt;提取最终优化查询&lt;/span&gt;" style="rounded=1;whiteSpace=wrap;html=1;fontSize=12;glass=0;strokeWidth=1;shadow=0;textDirection=vertical-lr;" vertex="1" parent="WIyWlLk6GJQsqaUBKTNV-1">
          <mxGeometry x="480" y="320" width="40" height="150" as="geometry" />
        </mxCell>
        <mxCell id="6gy2ai8xuSV1-r_3bE68-29" value="&lt;font style=&quot;font-size: 14px;&quot;&gt;是&lt;/font&gt;" style="text;html=1;align=center;verticalAlign=middle;resizable=0;points=[];autosize=1;strokeColor=none;fillColor=none;" vertex="1" parent="WIyWlLk6GJQsqaUBKTNV-1">
          <mxGeometry x="630" y="310" width="40" height="30" as="geometry" />
        </mxCell>
        <mxCell id="6gy2ai8xuSV1-r_3bE68-35" style="edgeStyle=orthogonalEdgeStyle;rounded=0;orthogonalLoop=1;jettySize=auto;html=1;entryX=1;entryY=0.5;entryDx=0;entryDy=0;" edge="1" parent="WIyWlLk6GJQsqaUBKTNV-1" source="6gy2ai8xuSV1-r_3bE68-30" target="6gy2ai8xuSV1-r_3bE68-32">
          <mxGeometry relative="1" as="geometry">
            <Array as="points">
              <mxPoint x="385" y="340" />
            </Array>
          </mxGeometry>
        </mxCell>
        <mxCell id="6gy2ai8xuSV1-r_3bE68-40" style="edgeStyle=orthogonalEdgeStyle;rounded=0;orthogonalLoop=1;jettySize=auto;html=1;entryX=1;entryY=0.5;entryDx=0;entryDy=0;" edge="1" parent="WIyWlLk6GJQsqaUBKTNV-1" source="6gy2ai8xuSV1-r_3bE68-30" target="6gy2ai8xuSV1-r_3bE68-38">
          <mxGeometry relative="1" as="geometry">
            <Array as="points">
              <mxPoint x="385" y="470" />
            </Array>
          </mxGeometry>
        </mxCell>
        <mxCell id="6gy2ai8xuSV1-r_3bE68-30" value="&lt;font style=&quot;font-size: 14px;&quot;&gt;优化查询为空？&lt;/font&gt;" style="rhombus;whiteSpace=wrap;html=1;shadow=0;fontFamily=Helvetica;fontSize=12;align=center;strokeWidth=1;spacing=6;spacingTop=-4;" vertex="1" parent="WIyWlLk6GJQsqaUBKTNV-1">
          <mxGeometry x="310" y="355" width="150" height="80" as="geometry" />
        </mxCell>
        <mxCell id="6gy2ai8xuSV1-r_3bE68-32" value="&lt;font style=&quot;font-size: 16px;&quot;&gt;返回原始查询&lt;/font&gt;" style="rounded=1;whiteSpace=wrap;html=1;fontSize=12;glass=0;strokeWidth=1;shadow=0;" vertex="1" parent="WIyWlLk6GJQsqaUBKTNV-1">
          <mxGeometry x="70" y="320" width="210" height="40" as="geometry" />
        </mxCell>
        <mxCell id="6gy2ai8xuSV1-r_3bE68-37" value="&lt;font style=&quot;font-size: 14px;&quot;&gt;是&lt;/font&gt;" style="text;html=1;align=center;verticalAlign=middle;resizable=0;points=[];autosize=1;strokeColor=none;fillColor=none;" vertex="1" parent="WIyWlLk6GJQsqaUBKTNV-1">
          <mxGeometry x="330" y="318" width="40" height="30" as="geometry" />
        </mxCell>
        <mxCell id="6gy2ai8xuSV1-r_3bE68-38" value="&lt;font style=&quot;font-size: 16px;&quot;&gt;返回优化后查询&lt;/font&gt;" style="rounded=1;whiteSpace=wrap;html=1;fontSize=12;glass=0;strokeWidth=1;shadow=0;" vertex="1" parent="WIyWlLk6GJQsqaUBKTNV-1">
          <mxGeometry x="70" y="450" width="210" height="40" as="geometry" />
        </mxCell>
        <mxCell id="6gy2ai8xuSV1-r_3bE68-41" value="&lt;font style=&quot;font-size: 14px;&quot;&gt;否&lt;/font&gt;" style="text;html=1;align=center;verticalAlign=middle;resizable=0;points=[];autosize=1;strokeColor=none;fillColor=none;" vertex="1" parent="WIyWlLk6GJQsqaUBKTNV-1">
          <mxGeometry x="320" y="450" width="40" height="30" as="geometry" />
        </mxCell>
      </root>
    </mxGraphModel>
  </diagram>
</mxfile>
